<mxfile host="65bd71144e">
    <diagram id="58XMA-p-C20267B4mfxz" name="PÃ¡gina-1">
        <mxGraphModel dx="1718" dy="606" grid="1" gridSize="10" guides="1" tooltips="1" connect="1" arrows="1" fold="1" page="1" pageScale="1" pageWidth="850" pageHeight="1100" math="0" shadow="0">
            <root>
                <mxCell id="0"/>
                <mxCell id="1" parent="0"/>
                <mxCell id="4" value="" style="edgeStyle=none;html=1;" parent="1" source="2" target="3" edge="1">
                    <mxGeometry relative="1" as="geometry"/>
                </mxCell>
                <mxCell id="2" value="INICIO" style="ellipse;whiteSpace=wrap;html=1;fillColor=#66FF66;" parent="1" vertex="1">
                    <mxGeometry x="220" y="10" width="70" height="40" as="geometry"/>
                </mxCell>
                <mxCell id="3" value="a, b, c" style="shape=parallelogram;perimeter=parallelogramPerimeter;whiteSpace=wrap;html=1;fixedSize=1;fillColor=#00CCCC;" parent="1" vertex="1">
                    <mxGeometry x="212.5" y="80" width="85" height="30" as="geometry"/>
                </mxCell>
                <mxCell id="5" value="" style="endArrow=classic;html=1;exitX=0.5;exitY=1;exitDx=0;exitDy=0;" edge="1" parent="1" source="3">
                    <mxGeometry width="50" height="50" relative="1" as="geometry">
                        <mxPoint x="160" y="180" as="sourcePoint"/>
                        <mxPoint x="255" y="160" as="targetPoint"/>
                    </mxGeometry>
                </mxCell>
                <mxCell id="7" style="edgeStyle=none;html=1;exitX=0;exitY=0.5;exitDx=0;exitDy=0;" edge="1" parent="1" source="6">
                    <mxGeometry relative="1" as="geometry">
                        <mxPoint x="80" y="280" as="targetPoint"/>
                        <Array as="points">
                            <mxPoint x="80" y="200"/>
                        </Array>
                    </mxGeometry>
                </mxCell>
                <mxCell id="8" style="edgeStyle=none;html=1;exitX=1;exitY=0.5;exitDx=0;exitDy=0;" edge="1" parent="1" source="6">
                    <mxGeometry relative="1" as="geometry">
                        <mxPoint x="440" y="280" as="targetPoint"/>
                        <Array as="points">
                            <mxPoint x="440" y="200"/>
                        </Array>
                    </mxGeometry>
                </mxCell>
                <mxCell id="6" value="a + b &amp;gt; c" style="rhombus;whiteSpace=wrap;html=1;fillColor=#fa6800;fontColor=#000000;strokeColor=#C73500;" vertex="1" parent="1">
                    <mxGeometry x="215" y="160" width="80" height="80" as="geometry"/>
                </mxCell>
                <mxCell id="9" value="si forma un triangulo" style="shape=document;whiteSpace=wrap;html=1;boundedLbl=1;fillColor=#1ba1e2;fontColor=#ffffff;strokeColor=#006EAF;" vertex="1" parent="1">
                    <mxGeometry x="380" y="280" width="120" height="80" as="geometry"/>
                </mxCell>
                <mxCell id="11" style="edgeStyle=none;html=1;exitX=1;exitY=0.5;exitDx=0;exitDy=0;" edge="1" parent="1" source="10">
                    <mxGeometry relative="1" as="geometry">
                        <mxPoint x="240" y="400" as="targetPoint"/>
                        <Array as="points">
                            <mxPoint x="240" y="320"/>
                        </Array>
                    </mxGeometry>
                </mxCell>
                <mxCell id="10" value="b + c&amp;nbsp; &amp;gt; a" style="rhombus;whiteSpace=wrap;html=1;fillColor=#fa6800;fontColor=#000000;strokeColor=#C73500;" vertex="1" parent="1">
                    <mxGeometry x="40" y="280" width="80" height="80" as="geometry"/>
                </mxCell>
                <mxCell id="13" style="edgeStyle=none;html=1;exitX=0;exitY=0.5;exitDx=0;exitDy=0;" edge="1" parent="1">
                    <mxGeometry relative="1" as="geometry">
                        <mxPoint x="-80" y="400" as="targetPoint"/>
                        <mxPoint x="40" y="320" as="sourcePoint"/>
                        <Array as="points">
                            <mxPoint x="-80" y="320"/>
                        </Array>
                    </mxGeometry>
                </mxCell>
                <mxCell id="15" value="si forma aun triangulo" style="shape=document;whiteSpace=wrap;html=1;boundedLbl=1;fillColor=#1ba1e2;fontColor=#ffffff;strokeColor=#006EAF;" vertex="1" parent="1">
                    <mxGeometry x="170" y="400" width="120" height="80" as="geometry"/>
                </mxCell>
                <mxCell id="18" value="" style="endArrow=classic;html=1;exitX=0.488;exitY=0.867;exitDx=0;exitDy=0;exitPerimeter=0;" edge="1" parent="1" source="9">
                    <mxGeometry width="50" height="50" relative="1" as="geometry">
                        <mxPoint x="440" y="410" as="sourcePoint"/>
                        <mxPoint x="230" y="720" as="targetPoint"/>
                        <Array as="points">
                            <mxPoint x="450" y="720"/>
                        </Array>
                    </mxGeometry>
                </mxCell>
                <mxCell id="20" style="edgeStyle=none;html=1;exitX=0;exitY=0.5;exitDx=0;exitDy=0;" edge="1" parent="1" source="19">
                    <mxGeometry relative="1" as="geometry">
                        <mxPoint x="-240" y="530" as="targetPoint"/>
                        <Array as="points">
                            <mxPoint x="-240" y="440"/>
                        </Array>
                    </mxGeometry>
                </mxCell>
                <mxCell id="21" style="edgeStyle=none;html=1;exitX=1;exitY=0.5;exitDx=0;exitDy=0;" edge="1" parent="1" source="19">
                    <mxGeometry relative="1" as="geometry">
                        <mxPoint x="80" y="520" as="targetPoint"/>
                        <Array as="points">
                            <mxPoint x="80" y="440"/>
                        </Array>
                    </mxGeometry>
                </mxCell>
                <mxCell id="19" value="b + c &amp;gt; a" style="rhombus;whiteSpace=wrap;html=1;fillColor=#fa6800;fontColor=#000000;strokeColor=#C73500;" vertex="1" parent="1">
                    <mxGeometry x="-120" y="400" width="80" height="80" as="geometry"/>
                </mxCell>
                <mxCell id="22" value="no forma un triangulo" style="shape=document;whiteSpace=wrap;html=1;boundedLbl=1;fillColor=#1ba1e2;fontColor=#ffffff;strokeColor=#006EAF;" vertex="1" parent="1">
                    <mxGeometry x="-300" y="530" width="120" height="80" as="geometry"/>
                </mxCell>
                <mxCell id="23" value="si forma un triangulo" style="shape=document;whiteSpace=wrap;html=1;boundedLbl=1;fillColor=#1ba1e2;fontColor=#ffffff;strokeColor=#006EAF;" vertex="1" parent="1">
                    <mxGeometry x="20" y="520" width="120" height="80" as="geometry"/>
                </mxCell>
                <mxCell id="24" value="" style="endArrow=classic;html=1;exitX=0.518;exitY=0.92;exitDx=0;exitDy=0;exitPerimeter=0;" edge="1" parent="1" source="23">
                    <mxGeometry width="50" height="50" relative="1" as="geometry">
                        <mxPoint x="80" y="620" as="sourcePoint"/>
                        <mxPoint x="80" y="720" as="targetPoint"/>
                    </mxGeometry>
                </mxCell>
                <mxCell id="25" value="" style="endArrow=classic;html=1;exitX=0.471;exitY=0.906;exitDx=0;exitDy=0;exitPerimeter=0;" edge="1" parent="1" source="22">
                    <mxGeometry width="50" height="50" relative="1" as="geometry">
                        <mxPoint x="-240" y="660" as="sourcePoint"/>
                        <mxPoint x="240" y="720" as="targetPoint"/>
                        <Array as="points">
                            <mxPoint x="-240" y="720"/>
                        </Array>
                    </mxGeometry>
                </mxCell>
                <mxCell id="26" value="" style="endArrow=classic;html=1;exitX=0.555;exitY=0.878;exitDx=0;exitDy=0;exitPerimeter=0;" edge="1" parent="1" source="15">
                    <mxGeometry width="50" height="50" relative="1" as="geometry">
                        <mxPoint x="220" y="720" as="sourcePoint"/>
                        <mxPoint x="240" y="720" as="targetPoint"/>
                    </mxGeometry>
                </mxCell>
                <mxCell id="29" value="" style="endArrow=classic;html=1;" edge="1" parent="1">
                    <mxGeometry width="50" height="50" relative="1" as="geometry">
                        <mxPoint x="240" y="730" as="sourcePoint"/>
                        <mxPoint x="240" y="802" as="targetPoint"/>
                    </mxGeometry>
                </mxCell>
                <mxCell id="30" value="iniicio" style="ellipse;whiteSpace=wrap;html=1;fillColor=#60a917;fontColor=#ffffff;strokeColor=#2D7600;" vertex="1" parent="1">
                    <mxGeometry x="177.5" y="800" width="120" height="80" as="geometry"/>
                </mxCell>
            </root>
        </mxGraphModel>
    </diagram>
</mxfile>